<svg xmlns="http://www.w3.org/2000/svg" viewBox="0 0 1291.9 180.2" fill="#0084cc"><path d="M1127.8 114.7c5.9 0 10.9 5 10.9 10.9s-5 10.9-10.9 10.9-10.9-5-10.9-10.9c0-6 5-10.9 10.9-10.9zm52.3-46.1c19.3 0 32.4 14.5 32.4 35.6v3.8h-48.1c1.1 8.2 7.6 15 18.6 15 6 0 13.1-2.4 17.3-6.4l7.5 11c-6.4 5.9-16.6 9-26.7 9-19.7 0-34.6-13.3-34.6-34 .1-18.9 13.9-34 33.6-34zm-16 27.9h31.9c-.4-6.2-4.7-14.3-15.9-14.3-10.6-.1-15.2 7.8-16 14.3zm62.4 18.1c4.7 4.4 14.3 8.8 22.4 8.8 7.4 0 10.9-2.5 10.9-6.6 0-4.6-5.6-6.2-13-7.6-11.1-2.1-25.5-4.8-25.5-20.2 0-10.9 9.5-20.4 26.5-20.4 11 0 19.7 3.8 26.1 8.8l-6.8 11.7c-3.9-4.2-11.3-7.5-19.2-7.5-6.2 0-10.2 2.3-10.2 6 0 4 5.1 5.5 12.3 7 11.1 2.1 26 5.1 26 21.2 0 11.8-10 20.8-28 20.8-11.3 0-22.1-3.8-28.9-10.1l7.4-11.9zM211.4 2.2h5v174.9h-5zm44.3 132.7v-91h66.7v20.4h-43.2v14.2h42.3V99h-42.3v15.4h43.2v20.4h-66.7zm78.9-36V44h23.9v54.1c0 10.8 6.5 18.5 19.2 18.5 12.5 0 19.1-7.8 19.1-18.5V44h23.7v54.8c0 22.6-13.6 38.6-42.8 38.6s-43.1-16.1-43.1-38.5zm148.9 36l-15.3-30.5h-12v30.5h-23.4v-91h45.5c20.2 0 31.6 13.4 31.6 30.3 0 15.8-9.5 24.3-18.1 27.3l18.5 33.4h-26.8zm2.6-60.8c0-6.3-5-9.7-11.3-9.7h-18.5v19.5h18.5c6.2 0 11.3-3.4 11.3-9.8zM753.8 44l-34.2 91h26.6l4.5-13.1h35.9l4.5 13.1h26.6l-34.2-91h-29.7zm3.3 57.4l11.6-34.2 11.5 34.2h-23.1zM880 94.2L860.9 44h-32.6v91h23.5V74.8l23 60.2h10.4l22.9-60.2V135h23.5V44H899zm65 40.8h66.7v-20.5h-43.2V99.1h42.3V78.6h-42.3V64.4h43.2V44H945zm139.4-33.4c8.6-3 18.1-11.5 18.1-27.3 0-16.9-11.5-30.3-31.7-30.3h-45.6v91h23.5v-30.6h12L1076 135h26.9l-18.5-33.4zm-17-17.6h-18.6V64.4h18.6c6.3 0 11.3 3.4 11.3 9.7 0 6.4-5 9.9-11.3 9.9zm-347 .2h-51.1v20.2h24.3c-3.8 7.4-10.1 11.2-19 11.2-15.9 0-27.1-10.9-27.1-26.6 0-14.5 10.8-25.6 25-25.6 8.2 0 15 3.5 19.9 10.4l19.9-10.3C704.2 50 690 42.3 672.5 42.3c-26.7 0-48.1 21-48.1 47.3 0 26.6 21.4 47.6 48.2 47.6 27.3 0 47.8-21.2 47.8-49.7v-3.3zm-154.6 53c-26.7 0-47.9-20.4-47.9-47.2 0-27.1 20.9-47.6 47.9-47.6 26.8 0 48.4 20.4 48.4 47.4s-21.8 47.4-48.4 47.4zM566 63c-14.9 0-24.9 12.3-24.9 26.7 0 14.6 10 27.1 25.2 27.1 14.6 0 24.6-12.6 24.6-26.7 0-14.4-9.8-27.1-24.9-27.1zM52.2 55.3l1.3 1.3 3.4.7-.8 2.9 1.3 4-3.4.5-1.9 9.2 4.8.7-6 7.4.8.5 13.5-4.4 7.7-.3 1.3-2.4-2.9-1.6 3.4-3.7-1.1-3.2-3.8-1.6-.6-4.2-6.2-10-6.1-2.7 4.2-1.4 1.4-6.9-6.5.3 2.7-4.3-.4-1.6-3.3.6-2.4.2L47.1 47l5.8 5.6zM46.8 73l.9-4.3-1-4.2 2.6-3.6-1.9-4.3h-5.5l-2.6 2.7v3.1l-3.6-.4v1.3l.8.8-1.5 2.2 2.6 1.2-.7 2 1.2 1.7-3.1.8v4.9h4.3zm47.5 57.9l1.7 3.4 1.5-1.8-.6-4.9zm-.4 6.9l-.9-.4-1 .3 1 2.6v3.3l1.6 1.7 1.6-2.2.4-6.4h-1.2zm17.6 12.3l-5.5-.9-.7.2 3.9 4.1 4.6 1.6.6-1.3-.9-1.1.9-3.1zm25.9-10.7l-2.4 2 2.6 3.5 1.9.2 1.1 2.9 1.2.7 1.1-5.1-1.2-2.2zM94.2.2C44.9.2 4.8 40.4 4.8 89.7s40.1 89.5 89.5 89.5 89.5-40.1 89.5-89.5C183.7 40.4 143.5.2 94.2.2zm0 171.4c-45.1 0-81.9-36.7-81.9-81.9C12.3 44.6 49 7.8 94.2 7.8c4.8 0 9.5.4 14.1 1.2L101 30.4l-10.9 2-3.5 8.7v10.8l7.1 2.9 8-9.7 6.9 13.7 2.5 4.9h2.5V59l5.5-6.1 3.5-2 1-8.1-7.4-2.9 3.1-6.9 11.3-7-1.5-3.5 5.7-4c3.7 2.1 7.2 4.5 10.5 7.1l-5.8 1.1-5.1 6.6 5.6 6.9 11.7-3.6v6.9l-5.7 3.8-12 2.2 3.5 8.7-6.6-1.8-2.9 5.1-2.6 9.4-3.6-1.8-11.5 5.1-3.3-2-4.4 1.2-3.5-8.7 2.7-2.9-2.7-1.9-4.3 2.8 1.8 10.7-9.4 3.7-3.6 7.2-5 2.7-.4 3.5-6.2 2.6-3.5-1.6.7 4.1-8.2.8v2.2l7.9 3.3.2 2.6h1l-8.8 7-19.7-.4-4.7 2.9 3.8 8.3-3.8 11.4 1.9 1.8 1.5-1.1-.9 6.9 13 6.1 3.7 4 9.1-2.9 1.3 3.5 3-3.9 1.8-.2 2.8-11-1.7-3.7 4.2-4.1V127l2.3.1 3.7-2.7-.5-.6 2.6-1.6 2.7.6 2 1.6 2.2-4.1 6.2-4.5.6 1.9.9 1.7 6.7 8.3 6.1 4.3 2.1 2.8 2 7.1-1.9 2.9.7.7 3.6-3.3 1.4-4.8-2.7-4.2.5-.7h2.2l2.9 1.5 1-.9-5-3.7-3-1.2-1.4-1.2-1.4-1.9-3.1-4.9-2.3-2.8-.2-2.3-.9-6.1 3.9-2.4 3.6-.6 1.4 1.1 1-.8 1.4 2.8 3.8 1.7 1.4-.4 7.1 9.1-.5 5.2 3.8 8 4.7.4 2.6 1.3-1.6-3.6-1.6-1.4-.1-4.1 2.7.9.6-1.7 5.3-.1 2.1.9 3.1-2 2.3.1-2.1-2.2-.4-4.5 2.5-5.6-3.6-2.6 4.1-4.2 3.8-.6 10.7-.5 6.5-1.7c-5.8 39.7-39.8 70.1-80.9 70.1z"/></svg>